<?xml version="1.0" encoding="utf-8"?>
<?xml-stylesheet type="text/xsl" href="rss1.xsl"?>
<rss version="2.0" xmlns:atom="http://www.w3.org/2005/Atom" xmlns:content="http://purl.org/rss/1.0/modules/content/" xmlns:dc="http://purl.org/dc/elements/1.1/" xmlns:media="http://search.yahoo.com/mrss/">
<channel>
 <title>Getty</title>
 <link>http://www.gettyimg.com/</link>
 <atom:link href="http://www.gettyimg.com/" rel="self" type="application/rss+xml" />

 
                <item>
                <title><![CDATA[【Requests】[REQ AUD] - Dannii Minogue - Neon Nights 20 Digital Deluxe Version]]></title>
                <link><![CDATA[https://sharemania.us/threads/dannii-minogue-neon-nights-20-digital-deluxe-version.222982/]]></link>
                <description><![CDATA[<article>
<blockquote class="messageText SelectQuoteContainer ugc baseHtml">
Can anyone share this "website exclusive" of Dannii's current album?<br>
<br>
Dannii Minogue - Neon Nights 20 (Digital Deluxe Version)<br>
<a href="https://danniiminogue.tmstor.es/product/116780?lf=22136e5c3230197c5ecc2574e03a2007" target="_blank" class="externalLink" rel="nofollow">Dannii Minogue - Neon Nights 20 - Dannii Minogue - Neon Nights 20 Deluxe Digital Album (tmstor.es)<br>
</a>
<div class="messageTextEndMarker">&nbsp;</div>
</blockquote>
</article>]]></description>
                <author><![CDATA[JustJack1994]]></author>
                </item>

                
                <item>
                <title><![CDATA[【Cinema Center】MOVIE - Spider Man: Across The Spider Verse [HEVC 24.0 Mb/s | HDR10 | E-AC3-JOC 5.1 English | Subtitles]]]></title>
                <link><![CDATA[https://sharemania.us/threads/spider-man-across-the-spider-verse-hevc-24-0-mb-s-hdr10-e-ac3-joc-5-1-english-subtitles.222979/]]></link>
                <description><![CDATA[<article>
<blockquote class="messageText SelectQuoteContainer ugc baseHtml">
<img src="https://m.media-amazon.com/images/M/MV5BNzQ1ODUzYjktMzRiMS00ODNiLWI4NzQtOTRiN2VlNTNmODFjXkEyXkFqcGdeQXVyMTkxNjUyNQ@@._V1_FMjpg_UX1000_.jpg" class="bbCodeImage LbImage" alt="[​IMG]" data-url="https://m.media-amazon.com/images/M/MV5BNzQ1ODUzYjktMzRiMS00ODNiLWI4NzQtOTRiN2VlNTNmODFjXkEyXkFqcGdeQXVyMTkxNjUyNQ@@._V1_FMjpg_UX1000_.jpg" style=""><br>
<br>
<div class="ToggleTriggerAnchor bbCodeSpoilerContainer">
<button type="button" class="button bbCodeSpoilerButton ToggleTrigger Tooltip JsOnly" data-target="> .SpoilerTarget"><span>Spoiler: <span class="SpoilerTitle">MediaInfo</span></span></button>
<div class="SpoilerTarget bbCodeSpoilerText">
<div class="bbCodeBlock bbCodeCode">
<div class="type">Code:</div>
<pre>General
Unique ID                                : 277138314777939580149555360211708668818 (0xD07EE5DDDFD9DD250C45F9888FFBEB92)
Complete name                            : C:\Users\Shadow\Desktop\Spider-Man.Across.The.Spider-Verse.2023.HDR10.2160p.WEBDL.x265.DDP5.1Atmos-SonMaxime.mkv
Format                                   : Matroska
Format version                           : Version 4
File size                                : 20.2 GiB
Duration                                 : 1 h 56 min
Overall bit rate                         : 24.8 Mb/s
Frame rate                               : 23.976 FPS
Writing application                      : mkvmerge v72.0.0 ('Minuano (Six-eight)') 64-bit
Writing library                          : libebml v1.4.4 + libmatroska v1.7.1

Video
ID                                       : 1
Format                                   : HEVC
Format/Info                              : High Efficiency Video Coding
Format profile                           : Main 10@L5@High
HDR format                               : SMPTE ST 2086, HDR10 compatible
Codec ID                                 : V_MPEGH/ISO/HEVC
Duration                                 : 1 h 56 min
Bit rate                                 : 24.0 Mb/s
Width                                    : 3 840 pixels
Height                                   : 1 592 pixels
Display aspect ratio                     : 2.40:1
Frame rate mode                          : Constant
Frame rate                               : 23.976 (23976/1000) FPS
Color space                              : YUV
Chroma subsampling                       : 4:2:0 (Type 2)
Bit depth                                : 10 bits
Bits/(Pixel*Frame)                       : 0.164
Stream size                              : 19.6 GiB (97%)
Default                                  : Yes
Forced                                   : No
Color range                              : Limited
Color primaries                          : BT.2020
Transfer characteristics                 : PQ
Matrix coefficients                      : BT.2020 non-constant
Mastering display color primaries        : BT.2020
Mastering display luminance              : min: 0.0050 cd/m2, max: 1000 cd/m2
Maximum Content Light Level              : 1484 cd/m2
Maximum Frame-Average Light Level        : 891 cd/m2

Audio
ID                                       : 2
Format                                   : E-AC-3 JOC
Format/Info                              : Enhanced AC-3 with Joint Object Coding
Commercial name                          : Dolby Digital Plus with Dolby Atmos
Codec ID                                 : A_EAC3
Duration                                 : 1 h 56 min
Bit rate mode                            : Constant
Bit rate                                 : 768 kb/s
Channel(s)                               : 6 channels
Channel layout                           : L R C LFE Ls Rs
Sampling rate                            : 48.0 kHz
Frame rate                               : 31.250 FPS (1536 SPF)
Compression mode                         : Lossy
Stream size                              : 642 MiB (3%)
Language                                 : English
Service kind                             : Complete Main
Default                                  : Yes
Forced                                   : No
Complexity index                         : 16
Number of dynamic objects                : 15
Bed channel count                        : 1 channel
Bed channel configuration                : LFE

Text #1
ID                                       : 3
Format                                   : UTF-8
Codec ID                                 : S_TEXT/UTF8
Codec ID/Info                            : UTF-8 Plain Text
Duration                                 : 1 h 55 min
Bit rate                                 : 54 b/s
Frame rate                               : 0.201 FPS
Count of elements                        : 1389
Stream size                              : 46.4 KiB (0%)
Title                                    : English British
Language                                 : English (GB)
Default                                  : No
Forced                                   : No

Text #2
ID                                       : 4
Format                                   : UTF-8
Codec ID                                 : S_TEXT/UTF8
Codec ID/Info                            : UTF-8 Plain Text
Duration                                 : 1 h 56 min
Bit rate                                 : 83 b/s
Frame rate                               : 0.325 FPS
Count of elements                        : 2271
Stream size                              : 71.0 KiB (0%)
Title                                    : English CC
Language                                 : English
Default                                  : No
Forced                                   : No

Text #3
ID                                       : 5
Format                                   : UTF-8
Codec ID                                 : S_TEXT/UTF8
Codec ID/Info                            : UTF-8 Plain Text
Duration                                 : 1 h 55 min
Bit rate                                 : 79 b/s
Frame rate                               : 0.210 FPS
Count of elements                        : 1463
Stream size                              : 67.8 KiB (0%)
Title                                    : Bulgarian
Language                                 : Bulgarian
Default                                  : No
Forced                                   : No

Text #4
ID                                       : 6
Format                                   : UTF-8
Codec ID                                 : S_TEXT/UTF8
Codec ID/Info                            : UTF-8 Plain Text
Duration                                 : 1 h 55 min
Bit rate                                 : 47 b/s
Frame rate                               : 0.202 FPS
Count of elements                        : 1406
Stream size                              : 40.3 KiB (0%)
Title                                    : Chinese Mandarin Simplified
Language                                 : Mandarin (Hans)
Default                                  : No
Forced                                   : No

Text #5
ID                                       : 7
Format                                   : UTF-8
Codec ID                                 : S_TEXT/UTF8
Codec ID/Info                            : UTF-8 Plain Text
Duration                                 : 1 h 55 min
Bit rate                                 : 44 b/s
Frame rate                               : 0.207 FPS
Count of elements                        : 1435
Stream size                              : 37.7 KiB (0%)
Title                                    : Chinese Mandarin Traditional
Language                                 : Mandarin (Hant)
Default                                  : No
Forced                                   : No

Text #6
ID                                       : 8
Format                                   : UTF-8
Codec ID                                 : S_TEXT/UTF8
Codec ID/Info                            : UTF-8 Plain Text
Duration                                 : 1 h 55 min
Bit rate                                 : 51 b/s
Frame rate                               : 0.199 FPS
Count of elements                        : 1376
Stream size                              : 43.8 KiB (0%)
Title                                    : Czech
Language                                 : Czech
Default                                  : No
Forced                                   : No

Text #7
ID                                       : 9
Format                                   : UTF-8
Codec ID                                 : S_TEXT/UTF8
Codec ID/Info                            : UTF-8 Plain Text
Duration                                 : 1 h 55 min
Bit rate                                 : 48 b/s
Frame rate                               : 0.161 FPS
Count of elements                        : 1116
Stream size                              : 41.3 KiB (0%)
Title                                    : Danish
Language                                 : Danish
Default                                  : No
Forced                                   : No

Text #8
ID                                       : 10
Format                                   : UTF-8
Codec ID                                 : S_TEXT/UTF8
Codec ID/Info                            : UTF-8 Plain Text
Duration                                 : 1 h 55 min
Bit rate                                 : 57 b/s
Frame rate                               : 0.208 FPS
Count of elements                        : 1444
Stream size                              : 49.0 KiB (0%)
Title                                    : German
Language                                 : German (DE)
Default                                  : No
Forced                                   : No

Text #9
ID                                       : 11
Format                                   : UTF-8
Codec ID                                 : S_TEXT/UTF8
Codec ID/Info                            : UTF-8 Plain Text
Duration                                 : 1 h 55 min
Bit rate                                 : 91 b/s
Frame rate                               : 0.204 FPS
Count of elements                        : 1415
Stream size                              : 78.0 KiB (0%)
Title                                    : Greek
Language                                 : Greek
Default                                  : No
Forced                                   : No

Text #10
ID                                       : 12
Format                                   : UTF-8
Codec ID                                 : S_TEXT/UTF8
Codec ID/Info                            : UTF-8 Plain Text
Duration                                 : 1 h 55 min
Bit rate                                 : 53 b/s
Frame rate                               : 0.199 FPS
Count of elements                        : 1379
Stream size                              : 45.5 KiB (0%)
Title                                    : Spanish Latin American
Language                                 : Spanish (Latin America)
Default                                  : No
Forced                                   : No

Text #11
ID                                       : 13
Format                                   : UTF-8
Codec ID                                 : S_TEXT/UTF8
Codec ID/Info                            : UTF-8 Plain Text
Duration                                 : 1 h 55 min
Bit rate                                 : 45 b/s
Frame rate                               : 0.203 FPS
Count of elements                        : 1404
Stream size                              : 38.5 KiB (0%)
Title                                    : Finnish
Language                                 : Finnish
Default                                  : No
Forced                                   : No

Text #12
ID                                       : 14
Format                                   : UTF-8
Codec ID                                 : S_TEXT/UTF8
Codec ID/Info                            : UTF-8 Plain Text
Duration                                 : 1 h 55 min
Bit rate                                 : 74 b/s
Frame rate                               : 0.205 FPS
Count of elements                        : 1422
Stream size                              : 63.4 KiB (0%)
Title                                    : Hebrew
Language                                 : Hebrew
Default                                  : No
Forced                                   : No

Text #13
ID                                       : 15
Format                                   : UTF-8
Codec ID                                 : S_TEXT/UTF8
Codec ID/Info                            : UTF-8 Plain Text
Duration                                 : 1 h 55 min
Bit rate                                 : 49 b/s
Frame rate                               : 0.209 FPS
Count of elements                        : 1454
Stream size                              : 41.7 KiB (0%)
Title                                    : Hungarian
Language                                 : Hungarian
Default                                  : No
Forced                                   : No

Text #14
ID                                       : 16
Format                                   : UTF-8
Codec ID                                 : S_TEXT/UTF8
Codec ID/Info                            : UTF-8 Plain Text
Duration                                 : 1 h 55 min
Bit rate                                 : 51 b/s
Frame rate                               : 0.204 FPS
Count of elements                        : 1417
Stream size                              : 43.5 KiB (0%)
Title                                    : Indonesian
Language                                 : Indonesian
Default                                  : No
Forced                                   : No

Text #15
ID                                       : 17
Format                                   : UTF-8
Codec ID                                 : S_TEXT/UTF8
Codec ID/Info                            : UTF-8 Plain Text
Duration                                 : 1 h 55 min
Bit rate                                 : 51 b/s
Frame rate                               : 0.195 FPS
Count of elements                        : 1349
Stream size                              : 43.2 KiB (0%)
Title                                    : Italian
Language                                 : Italian (IT)
Default                                  : No
Forced                                   : No

Text #16
ID                                       : 18
Format                                   : UTF-8
Codec ID                                 : S_TEXT/UTF8
Codec ID/Info                            : UTF-8 Plain Text
Duration                                 : 1 h 55 min
Bit rate                                 : 43 b/s
Frame rate                               : 0.208 FPS
Count of elements                        : 1444
Stream size                              : 36.7 KiB (0%)
Title                                    : Japanese
Language                                 : Japanese (JP)
Default                                  : No
Forced                                   : No

Text #17
ID                                       : 19
Format                                   : UTF-8
Codec ID                                 : S_TEXT/UTF8
Codec ID/Info                            : UTF-8 Plain Text
Duration                                 : 1 h 55 min
Bit rate                                 : 54 b/s
Frame rate                               : 0.208 FPS
Count of elements                        : 1443
Stream size                              : 46.2 KiB (0%)
Title                                    : Korean
Language                                 : Korean
Default                                  : No
Forced                                   : No

Text #18
ID                                       : 20
Format                                   : UTF-8
Codec ID                                 : S_TEXT/UTF8
Codec ID/Info                            : UTF-8 Plain Text
Duration                                 : 1 h 55 min
Bit rate                                 : 56 b/s
Frame rate                               : 0.209 FPS
Count of elements                        : 1448
Stream size                              : 47.6 KiB (0%)
Title                                    : Malay
Language                                 : Malay
Default                                  : No
Forced                                   : No

Text #19
ID                                       : 21
Format                                   : UTF-8
Codec ID                                 : S_TEXT/UTF8
Codec ID/Info                            : UTF-8 Plain Text
Duration                                 : 1 h 55 min
Bit rate                                 : 45 b/s
Frame rate                               : 0.168 FPS
Count of elements                        : 1165
Stream size                              : 38.6 KiB (0%)
Title                                    : Dutch
Language                                 : Dutch
Default                                  : No
Forced                                   : No

Text #20
ID                                       : 22
Format                                   : UTF-8
Codec ID                                 : S_TEXT/UTF8
Codec ID/Info                            : UTF-8 Plain Text
Duration                                 : 1 h 55 min
Bit rate                                 : 49 b/s
Frame rate                               : 0.202 FPS
Count of elements                        : 1401
Stream size                              : 42.0 KiB (0%)
Title                                    : Norwegian
Language                                 : Norwegian
Default                                  : No
Forced                                   : No

Text #21
ID                                       : 23
Format                                   : UTF-8
Codec ID                                 : S_TEXT/UTF8
Codec ID/Info                            : UTF-8 Plain Text
Duration                                 : 1 h 55 min
Bit rate                                 : 52 b/s
Frame rate                               : 0.197 FPS
Count of elements                        : 1368
Stream size                              : 44.6 KiB (0%)
Title                                    : Polish
Language                                 : Polish
Default                                  : No
Forced                                   : No

Text #22
ID                                       : 24
Format                                   : UTF-8
Codec ID                                 : S_TEXT/UTF8
Codec ID/Info                            : UTF-8 Plain Text
Duration                                 : 1 h 55 min
Bit rate                                 : 51 b/s
Frame rate                               : 0.202 FPS
Count of elements                        : 1403
Stream size                              : 43.6 KiB (0%)
Title                                    : Portuguese Brazilian
Language                                 : Portuguese (BR)
Default                                  : No
Forced                                   : No

Text #23
ID                                       : 25
Format                                   : UTF-8
Codec ID                                 : S_TEXT/UTF8
Codec ID/Info                            : UTF-8 Plain Text
Duration                                 : 1 h 55 min
Bit rate                                 : 57 b/s
Frame rate                               : 0.208 FPS
Count of elements                        : 1443
Stream size                              : 49.0 KiB (0%)
Title                                    : Portuguese European
Language                                 : Portuguese (PT)
Default                                  : No
Forced                                   : No

Text #24
ID                                       : 26
Format                                   : UTF-8
Codec ID                                 : S_TEXT/UTF8
Codec ID/Info                            : UTF-8 Plain Text
Duration                                 : 1 h 55 min
Bit rate                                 : 44 b/s
Frame rate                               : 0.202 FPS
Count of elements                        : 1407
Stream size                              : 38.2 KiB (0%)
Title                                    : Slovak
Language                                 : Slovak
Default                                  : No
Forced                                   : No

Text #25
ID                                       : 27
Format                                   : UTF-8
Codec ID                                 : S_TEXT/UTF8
Codec ID/Info                            : UTF-8 Plain Text
Duration                                 : 1 h 55 min
Bit rate                                 : 44 b/s
Frame rate                               : 0.166 FPS
Count of elements                        : 1154
Stream size                              : 37.9 KiB (0%)
Title                                    : Slovenian
Language                                 : Slovenian
Default                                  : No
Forced                                   : No

Text #26
ID                                       : 28
Format                                   : UTF-8
Codec ID                                 : S_TEXT/UTF8
Codec ID/Info                            : UTF-8 Plain Text
Duration                                 : 1 h 55 min
Bit rate                                 : 46 b/s
Frame rate                               : 0.147 FPS
Count of elements                        : 1020
Stream size                              : 39.8 KiB (0%)
Title                                    : Swedish
Language                                 : Swedish
Default                                  : No
Forced                                   : No

Text #27
ID                                       : 29
Format                                   : UTF-8
Codec ID                                 : S_TEXT/UTF8
Codec ID/Info                            : UTF-8 Plain Text
Duration                                 : 1 h 55 min
Bit rate                                 : 117 b/s
Frame rate                               : 0.208 FPS
Count of elements                        : 1443
Stream size                              : 99.1 KiB (0%)
Title                                    : Thai
Language                                 : Thai
Default                                  : No
Forced                                   : No

Text #28
ID                                       : 30
Format                                   : UTF-8
Codec ID                                 : S_TEXT/UTF8
Codec ID/Info                            : UTF-8 Plain Text
Duration                                 : 1 h 55 min
Bit rate                                 : 58 b/s
Frame rate                               : 0.206 FPS
Count of elements                        : 1431
Stream size                              : 49.7 KiB (0%)
Title                                    : Turkish
Language                                 : Turkish
Default                                  : No
Forced                                   : No

Text #29
ID                                       : 31
Format                                   : UTF-8
Codec ID                                 : S_TEXT/UTF8
Codec ID/Info                            : UTF-8 Plain Text
Duration                                 : 1 h 55 min
Bit rate                                 : 81 b/s
Frame rate                               : 0.211 FPS
Count of elements                        : 1468
Stream size                              : 69.0 KiB (0%)
Title                                    : Ukrainian
Language                                 : Ukrainian
Default                                  : No
Forced                                   : No

Text #30
ID                                       : 32
Format                                   : UTF-8
Codec ID                                 : S_TEXT/UTF8
Codec ID/Info                            : UTF-8 Plain Text
Duration                                 : 1 h 55 min
Bit rate                                 : 72 b/s
Frame rate                               : 0.205 FPS
Count of elements                        : 1428
Stream size                              : 61.9 KiB (0%)
Title                                    : Vietnamese
Language                                 : Vietnamese
Default                                  : No
Forced                                   : No

Text #31
ID                                       : 33
Format                                   : UTF-8
Codec ID                                 : S_TEXT/UTF8
Codec ID/Info                            : UTF-8 Plain Text
Duration                                 : 1 h 55 min
Bit rate                                 : 48 b/s
Frame rate                               : 0.209 FPS
Count of elements                        : 1453
Stream size                              : 40.8 KiB (0%)
Title                                    : Chinese Cantonese Traditional
Language                                 : Cantonese (Hant)
Default                                  : No
Forced                                   : No

Menu
00:00:00.000                             : en:Chapter 01
00:09:03.793                             : en:Chapter 02
00:14:04.719                             : en:Chapter 03
00:18:51.715                             : en:Chapter 04
00:29:39.029                             : en:Chapter 05
00:34:14.637                             : en:Chapter 06
00:40:34.434                             : en:Chapter 07
00:44:22.829                             : en:Chapter 08
00:48:06.886                             : en:Chapter 09
00:58:45.859                             : en:Chapter 10
01:06:04.464                             : en:Chapter 11
01:09:55.487                             : en:Chapter 12
01:20:00.008                             : en:Chapter 13
01:24:54.928                             : en:Chapter 14
01:33:33.405                             : en:Chapter 15
01:55:26.926                             : en:Chapter 16</pre>
</div></div>
</div><br>
<b><span style="color: #ff4d4d">Spider-Man.Across.The.Spider-Verse.2023.HDR10.2160p.WEBDL.x265.DDP5.1Atmos-SonMaxime</span></b><br>
<br>
<div class="bbCodeBlock bbCodeVfcHH HiddenContent">
<div class="attribution type">Hidden Content:</div>
<blockquote>You must reply before you can see the hidden data contained here.</blockquote>
</div>
<div class="messageTextEndMarker">&nbsp;</div>
</blockquote>
</article>]]></description>
                <author><![CDATA[SonMaxime]]></author>
                </item>

                
                <item>
                <title><![CDATA[【Requests】[REQ AUD] - Olivia Newton-John "Singles Collection"]]></title>
                <link><![CDATA[https://sharemania.us/threads/olivia-newton-john-singles-collection.222980/]]></link>
                <description><![CDATA[<article>
<blockquote class="messageText SelectQuoteContainer ugc baseHtml">
hi! does anyone have the following remastered cd please?<br>
<br>
<a href="https://www.discogs.com/release/3012125-Olivia-Newton-John-Olivia-The-Singles-Australasian-Tour-Souvenir" target="_blank" class="externalLink" rel="nofollow">https://www.discogs.com/release/301...Olivia-The-Singles-Australasian-Tour-Souvenir</a><br>
<br>
thank you sooo much!!!!
<div class="messageTextEndMarker">&nbsp;</div>
</blockquote>
</article>]]></description>
                <author><![CDATA[michaeldila]]></author>
                </item>

                
                <item>
                <title><![CDATA[【Requests】[REQ CAP] - “SUGA |  AGUST D TOUR |  D DAY” streaming online 24 e 25/06]]></title>
                <link><![CDATA[https://sharemania.us/threads/%E2%80%9Csuga-agust-d-tour-d-day%E2%80%9D-streaming-online-24-e-25-06.222983/]]></link>
                <description><![CDATA[<article>
<blockquote class="messageText SelectQuoteContainer ugc baseHtml">
Can someone please record Suga's (BTS) concert, streaming online. With the last two concerts, Min Yoongi totals 25 concerts of his “SUGA | AGUST D TOUR | D DAY”<br>
<br>
24 de junho às 07:00 am<br>
25 de junho às 05:00 am<br>
<br>
Both shows will be broadcast (paid) live online on Weverse!<br>
<br>
<img src="https://i.postimg.cc/c4MVYQkw/20230619-151027.jpg" class="bbCodeImage LbImage" alt="[​IMG]" data-url="https://i.postimg.cc/c4MVYQkw/20230619-151027.jpg" style="">
<div class="messageTextEndMarker">&nbsp;</div>
</blockquote>
</article>]]></description>
                <author><![CDATA[mvlmoraes]]></author>
                </item>

                </channel></rss>